<?xml version="1.0" encoding="UTF-8"?>
<svg id="Layer_1" xmlns="http://www.w3.org/2000/svg" version="1.1" viewBox="0 0 841.9 595.3">
  <!-- Generator: Adobe Illustrator 29.7.1, SVG Export Plug-In . SVG Version: 2.1.1 Build 8)  -->
  <defs>
    <style>
      .st0 {
        fill: #216aff;
      }
    </style>
  </defs>
  <path class="st0" d="M341.6,370.1c-9.1,0-17.6-1.6-25.3-4.8-7.8-3.2-14.6-7.6-20.4-13.4-5.8-5.8-10.4-12.5-13.6-20.2-3.2-7.7-4.8-15.9-4.8-24.8s1.6-17.2,4.8-24.8c3.2-7.7,7.8-14.3,13.6-20,5.8-5.6,12.6-10.1,20.3-13.2,7.7-3.2,16.2-4.8,25.4-4.8s18.3,1.6,25.9,4.7c7,2.9,13.2,6.8,18.6,11.7.7.6.7,1.6,0,2.3l-16.1,16.2c-.6.6-1.6.6-2.2,0-2.9-2.9-6.4-5.2-10.4-7-4.6-2-9.8-2.9-15.8-2.9s-10.2.9-14.5,2.7c-4.4,1.8-8.2,4.4-11.4,7.7-3.2,3.3-5.7,7.4-7.4,12.1-1.7,4.7-2.6,9.9-2.6,15.4s.9,11,2.6,15.7c1.7,4.7,4.2,8.7,7.4,12.1,3.2,3.4,7,6,11.4,7.8,4.4,1.8,9.2,2.7,14.5,2.7s11.6-1,16.3-2.9c4.1-1.7,7.7-4,10.7-7.1.6-.6,1.6-.7,2.2,0l16.2,16.2c.6.6.6,1.7,0,2.3-5.5,5-11.8,8.9-18.9,11.8-7.6,3.1-16.4,4.6-26.5,4.6Z"/>
  <path class="st0" d="M502.3,370.1c-9.1,0-17.6-1.6-25.3-4.8-7.8-3.2-14.6-7.6-20.4-13.4-5.8-5.8-10.4-12.5-13.6-20.2-3.2-7.7-4.8-15.9-4.8-24.8s1.6-17.2,4.8-24.8c3.2-7.7,7.8-14.3,13.6-20,5.8-5.6,12.6-10.1,20.3-13.2,7.7-3.2,16.2-4.8,25.4-4.8s18.3,1.6,25.9,4.7c7,2.9,13.2,6.8,18.6,11.7.7.6.7,1.6,0,2.3l-16.1,16.2c-.6.6-1.6.6-2.2,0-2.9-2.9-6.4-5.2-10.4-7-4.6-2-9.8-2.9-15.8-2.9s-10.2.9-14.5,2.7c-4.4,1.8-8.2,4.4-11.4,7.7-3.2,3.3-5.7,7.4-7.4,12.1-1.7,4.7-2.6,9.9-2.6,15.4s.9,11,2.6,15.7c1.7,4.7,4.2,8.7,7.4,12.1,3.2,3.4,7,6,11.4,7.8,4.4,1.8,9.2,2.7,14.5,2.7s11.6-1,16.3-2.9c4.1-1.7,7.7-4,10.7-7.1.6-.6,1.6-.7,2.2,0l16.2,16.2c.6.6.6,1.7,0,2.3-5.5,5-11.8,8.9-18.9,11.8-7.6,3.1-16.4,4.6-26.5,4.6Z"/>
  <path class="st0" d="M424.8,268.9v-19.3c0-.9-.7-1.6-1.6-1.6h-25.1c-.9,0-1.6.7-1.6,1.6v115.4c0,.9.7,1.6,1.6,1.6h25.1c.9,0,1.6-.7,1.6-1.6v-85.1c0-.9-.7-1.6-1.6-1.6h-16.5c-1.8,0-2.2-2.4-.5-3,0,0,15.7-4.2,17-4.6,0,0,1.6-.5,1.6-1.8Z"/>
  <g>
    <path class="st0" d="M319.1,396.4c-.7-.7-1.5-1.2-2.5-1.6s-1.9-.5-3-.5c-1.6,0-3,.4-4.1,1.1s-2.1,1.7-2.7,3-1,2.8-1,4.5.3,3.2,1,4.5,1.6,2.3,2.8,3c1.2.7,2.7,1.1,4.3,1.1s2.4-.2,3.4-.6c1-.4,1.8-.9,2.5-1.6.6-.6,1-1.4,1.3-2.2s0-.2-.2-.3l-3.2-.5c0,0-.2,0-.2.1-.2.4-.4.8-.7,1-.3.3-.7.6-1.2.7s-1,.3-1.6.3c-.9,0-1.6-.2-2.3-.6-.6-.4-1.2-.9-1.5-1.6-.3-.6-.5-1.3-.5-2.1s0-.2.2-.2h11.5v-1.2c0-1.4-.2-2.7-.6-3.7-.4-1.1-1-1.9-1.7-2.6ZM311.5,397.9c.6-.4,1.3-.6,2.2-.6s1.6.2,2.2.6,1,.9,1.3,1.6c.2.4.3.9.4,1.5s0,.2-.2.2h-7.4c-.1,0-.2-.1-.2-.2,0-.5.2-1,.4-1.5.3-.7.8-1.2,1.4-1.6Z"/>
    <path class="st0" d="M332.2,403.5c-.3,1-.6,2.1-.9,3.1-.1.4-.2.8-.3,1.3-.1-.4-.2-.8-.3-1.3-.3-1-.6-2.1-.9-3.1l-3-8.8c0,0-.1-.1-.2-.1h-3.7c-.1,0-.2.1-.2.3l6.1,16.2c0,0,.1.1.2.1h4.1c0,0,.2,0,.2-.1l6.1-16.2c0-.1,0-.3-.2-.3h-3.7c0,0-.2,0-.2.1l-3,8.8Z"/>
    <path class="st0" d="M353.8,396.4c-.7-.7-1.5-1.2-2.5-1.6s-1.9-.5-3-.5c-1.6,0-3,.4-4.1,1.1s-2.1,1.7-2.7,3-1,2.8-1,4.5.3,3.2,1,4.5,1.6,2.3,2.8,3c1.2.7,2.7,1.1,4.3,1.1s2.4-.2,3.4-.6c1-.4,1.8-.9,2.5-1.6.6-.6,1-1.4,1.3-2.2s0-.2-.2-.3l-3.2-.5c0,0-.2,0-.2.1-.2.4-.4.8-.7,1-.3.3-.7.6-1.2.7s-1,.3-1.6.3c-.9,0-1.6-.2-2.3-.6-.6-.4-1.2-.9-1.5-1.6-.3-.6-.5-1.3-.5-2.1s0-.2.2-.2h11.5v-1.2c0-1.4-.2-2.7-.6-3.7-.4-1.1-1-1.9-1.7-2.6ZM346.2,397.9c.6-.4,1.3-.6,2.2-.6s1.6.2,2.2.6,1,.9,1.3,1.6c.2.4.3.9.4,1.5s0,.2-.2.2h-7.4c-.1,0-.2-.1-.2-.2,0-.5.2-1,.4-1.5.3-.7.8-1.2,1.4-1.6Z"/>
    <path class="st0" d="M371.2,395c-.9-.5-1.9-.7-3-.7s-2.5.4-3.5,1.1c-.7.5-1.3,1.3-1.7,2.2v-2.9c0-.1-.1-.2-.2-.2h-3.3c-.1,0-.2,0-.2.2v16.2c0,.1,0,.2.2.2h3.5c.1,0,.2,0,.2-.2v-9.4c0-.8.2-1.5.5-2.1.3-.6.7-1,1.3-1.3.5-.3,1.2-.4,1.8-.4,1,0,1.8.3,2.4.9.6.6.9,1.5.9,2.7v9.7c0,.1,0,.2.2.2h3.5c.1,0,.2,0,.2-.2v-10.3c0-1.3-.2-2.5-.7-3.4s-1.2-1.7-2-2.1Z"/>
    <path class="st0" d="M385,408.1c-.3,0-.5,0-.7,0-.6,0-1-.1-1.3-.4-.3-.3-.4-.7-.4-1.3v-8.6c0-.1,0-.2.2-.2h2.9c.1,0,.2,0,.2-.2v-2.6c0-.1,0-.2-.2-.2h-2.9c-.1,0-.2,0-.2-.2v-3.7c0-.1,0-.2-.2-.2h-3.5c-.1,0-.2,0-.2.2v3.7c0,.1,0,.2-.2.2h-2.1c-.1,0-.2,0-.2.2v2.6c0,.1,0,.2.2.2h2.1c.1,0,.2,0,.2.2v9c0,1.4.4,2.6,1.3,3.3.8.8,2.1,1.2,3.7,1.2s.9,0,1.3,0c.4,0,.9-.1,1.3-.2l-.5-3c-.2,0-.4,0-.7,0Z"/>
    <path class="st0" d="M406.9,406.5c-.2.4-.5.7-.8.9s-.7.5-1,.6c-.4.1-.8.2-1.3.2-.9,0-1.6-.2-2.2-.7s-1.1-1.1-1.4-1.9c-.3-.8-.5-1.7-.5-2.8s.2-2,.5-2.8c.3-.8.8-1.5,1.4-1.9s1.3-.7,2.2-.7.9,0,1.3.2c.4.1.7.3,1,.6.3.2.5.5.8.9.2.3.3.6.4,1s.1.2.2.1l3.3-.5c.1,0,.2-.1.2-.2-.2-.7-.4-1.4-.8-2-.4-.7-.9-1.2-1.6-1.7s-1.4-.8-2.2-1.1c-.8-.2-1.7-.4-2.7-.4-1.6,0-3,.4-4.2,1.1-1.2.7-2.1,1.7-2.8,3-.7,1.3-1,2.8-1,4.5s.3,3.2,1,4.5c.7,1.3,1.6,2.3,2.8,3,1.2.7,2.6,1.1,4.2,1.1s1.9-.1,2.7-.4c.8-.3,1.5-.6,2.2-1.1.6-.5,1.2-1.1,1.6-1.7.4-.6.7-1.3.8-2.1s0-.2-.2-.2l-3.3-.5c-.1,0-.2,0-.2.2,0,.4-.2.7-.4,1Z"/>
    <path class="st0" d="M425.8,395.4c-1.2-.7-2.6-1.1-4.3-1.1s-3,.4-4.2,1.1c-1.2.7-2.1,1.7-2.8,3-.7,1.3-1,2.8-1,4.5s.3,3.2,1,4.5c.7,1.3,1.6,2.3,2.8,3,1.2.7,2.6,1.1,4.2,1.1s3-.4,4.3-1.1c1.2-.7,2.1-1.7,2.8-3,.7-1.3,1-2.8,1-4.5s-.3-3.2-1-4.5c-.7-1.3-1.6-2.3-2.8-3ZM425.1,405.6c-.3.8-.8,1.5-1.4,1.9s-1.4.7-2.3.7-1.6-.2-2.2-.7-1.1-1.1-1.4-1.9c-.3-.8-.5-1.7-.5-2.8s.2-2,.5-2.8c.3-.8.8-1.5,1.4-1.9s1.3-.7,2.2-.7,1.6.2,2.3.7,1.1,1.1,1.4,1.9c.3.8.5,1.7.5,2.8s-.2,1.9-.5,2.8Z"/>
    <path class="st0" d="M444.7,395c-.9-.5-1.9-.7-3-.7s-2.5.4-3.5,1.1c-.7.5-1.3,1.3-1.7,2.2v-2.9c0-.1-.1-.2-.2-.2h-3.3c-.1,0-.2,0-.2.2v16.2c0,.1,0,.2.2.2h3.5c.1,0,.2,0,.2-.2v-9.4c0-.8.2-1.5.5-2.1.3-.6.7-1,1.3-1.3.5-.3,1.2-.4,1.8-.4,1,0,1.8.3,2.4.9.6.6.9,1.5.9,2.7v9.7c0,.1,0,.2.2.2h3.5c.1,0,.2,0,.2-.2v-10.3c0-1.3-.2-2.5-.7-3.4s-1.2-1.7-2-2.1Z"/>
    <path class="st0" d="M462.7,397.2h-.2c-.2-.4-.6-.9-1-1.3-.4-.5-.9-.8-1.6-1.1s-1.4-.4-2.3-.4c-1.3,0-2.5.3-3.5,1-1.1.7-1.9,1.6-2.5,2.9-.6,1.3-.9,2.8-.9,4.6s.3,3.2.9,4.5c.6,1.2,1.4,2.1,2.5,2.8,1,.6,2.2.9,3.6.9s1.7-.1,2.3-.4c.6-.3,1.1-.6,1.5-1,.4-.4.7-.9.9-1.3h.2v3c0,1.2-.4,2.1-1.1,2.7s-1.7.9-2.9.9-1.4-.1-1.9-.3c-.5-.2-.9-.5-1.3-.8-.3-.3-.5-.6-.6-.9s-.1-.1-.2,0l-3.1.8c-.1,0-.2.2-.1.3.3.7.7,1.4,1.2,1.9s1.4,1.1,2.5,1.5,2.2.5,3.6.5,2.8-.2,4-.7c1.2-.5,2.1-1.2,2.8-2.2s1-2.2,1-3.7v-16.3c0-.1,0-.2-.2-.2h-3.4c-.1,0-.2,0-.2.2v2.5ZM462.3,405.5c-.3.8-.8,1.4-1.4,1.8-.6.4-1.3.6-2.2.6s-1.6-.2-2.2-.6-1-1-1.4-1.8-.5-1.7-.5-2.7.2-1.9.5-2.7c.3-.8.8-1.4,1.4-1.9.6-.4,1.3-.7,2.2-.7s1.6.2,2.2.7,1.1,1.1,1.4,1.8c.3.8.5,1.7.5,2.8s-.2,2-.5,2.7Z"/>
    <path class="st0" d="M478.6,394.3c-1,0-1.8.3-2.6.8s-1.2,1.2-1.5,2.2h-.2v-2.6c0-.1,0-.2-.2-.2h-3.4c-.1,0-.2,0-.2.2v16.2c0,.1,0,.2.2.2h3.5c.1,0,.2,0,.2-.2v-9.5c0-.7.2-1.4.5-1.9.3-.5.8-1,1.3-1.3s1.2-.5,1.9-.5.7,0,1.1,0c.4,0,.6,0,.8.1v-3.5c-.2,0-.4,0-.7,0-.3,0-.5,0-.7,0Z"/>
    <path class="st0" d="M494.5,396.4c-.7-.7-1.5-1.2-2.5-1.6-.9-.3-1.9-.5-3-.5-1.6,0-3,.4-4.1,1.1-1.2.7-2.1,1.7-2.8,3-.6,1.3-1,2.8-1,4.5s.3,3.2,1,4.5,1.6,2.3,2.8,3c1.2.7,2.7,1.1,4.3,1.1s2.4-.2,3.4-.6c1-.4,1.8-.9,2.5-1.6.6-.6,1-1.4,1.3-2.2s0-.2-.2-.3l-3.2-.5c0,0-.2,0-.2.1-.2.4-.4.8-.7,1-.3.3-.7.6-1.2.7-.5.2-1,.3-1.6.3-.9,0-1.6-.2-2.3-.6-.6-.4-1.2-.9-1.5-1.6-.3-.6-.5-1.3-.5-2.1s0-.2.2-.2h11.5v-1.2c0-1.4-.2-2.7-.6-3.7-.4-1.1-1-1.9-1.7-2.6ZM487,397.9c.6-.4,1.3-.6,2.2-.6s1.6.2,2.2.6c.6.4,1,.9,1.3,1.6.2.4.3.9.4,1.5s0,.2-.2.2h-7.4c-.1,0-.2-.1-.2-.2,0-.5.2-1,.4-1.5.3-.7.8-1.2,1.4-1.6Z"/>
    <path class="st0" d="M508.8,401.7l-2.9-.6c-.8-.2-1.4-.4-1.8-.7-.4-.3-.6-.7-.6-1.2s.3-1,.8-1.4c.5-.4,1.2-.5,2.1-.5s1.6.2,2.1.6c.5.4.8.8,1,1.4s.1.2.2.1l3.1-.5c.1,0,.2-.1.2-.2-.2-.8-.6-1.6-1.1-2.2-.6-.7-1.3-1.2-2.3-1.6-.9-.4-2-.6-3.3-.6s-2.5.2-3.5.6-1.8,1-2.4,1.8-.8,1.6-.8,2.7.4,2.2,1.2,3c.8.8,2,1.3,3.6,1.7l2.8.6c.7.2,1.3.4,1.7.7.4.3.6.7.6,1.2s-.3,1-.8,1.4c-.6.4-1.3.6-2.3.6s-1.7-.2-2.3-.6c-.5-.4-.9-.9-1.1-1.7s-.1-.2-.2-.1l-3.3.5c-.1,0-.2.1-.2.2.2.9.6,1.8,1.2,2.4s1.5,1.3,2.5,1.6c1,.4,2.2.6,3.4.6s2.6-.2,3.7-.7,1.9-1.1,2.5-1.9c.6-.8.9-1.7.9-2.8s-.4-2.1-1.2-2.9c-.8-.7-2-1.3-3.5-1.6Z"/>
    <path class="st0" d="M529.1,403.3c-.8-.7-2-1.3-3.5-1.6l-2.9-.6c-.8-.2-1.4-.4-1.8-.7-.4-.3-.6-.7-.6-1.2s.3-1,.8-1.4c.5-.4,1.2-.5,2.1-.5s1.6.2,2.1.6c.5.4.8.8,1,1.4s.1.2.2.1l3.1-.5c.1,0,.2-.1.2-.2-.2-.8-.6-1.6-1.1-2.2-.6-.7-1.3-1.2-2.3-1.6-.9-.4-2-.6-3.3-.6s-2.5.2-3.5.6-1.8,1-2.4,1.8-.8,1.6-.8,2.7.4,2.2,1.2,3c.8.8,2,1.3,3.6,1.7l2.8.6c.7.2,1.3.4,1.7.7.4.3.6.7.6,1.2s-.3,1-.8,1.4c-.6.4-1.3.6-2.3.6s-1.7-.2-2.3-.6c-.5-.4-.9-.9-1.1-1.7s-.1-.2-.2-.1l-3.3.5c-.1,0-.2.1-.2.2.2.9.6,1.8,1.2,2.4s1.5,1.3,2.5,1.6c1,.4,2.2.6,3.4.6s2.6-.2,3.7-.7,1.9-1.1,2.5-1.9c.6-.8.9-1.7.9-2.8s-.4-2.1-1.2-2.9Z"/>
  </g>
</svg>